HIERARCHY
ROOT Hips
{
	OFFSET 0.00000 0.00000 0.00000
	CHANNELS 6 Xposition Yposition Zposition Zrotation Yrotation Xrotation 
	JOINT LHipJoint
	{
		OFFSET 0 0 0
		CHANNELS 3 Zrotation Yrotation Xrotation
		JOINT LeftHip
		{
			OFFSET 1.43652 -1.81092 0.91346
			CHANNELS 3 Zrotation Yrotation Xrotation
			JOINT LeftKnee
			{
				OFFSET 2.45984 -6.75837 0.00000
				CHANNELS 3 Zrotation Yrotation Xrotation
				JOINT LeftAnkle
				{
					OFFSET 2.63718 -7.24559 0.00000
					CHANNELS 3 Zrotation Yrotation Xrotation
					JOINT LeftToe
					{
						OFFSET 0.19690 -0.54098 2.12239
						CHANNELS 3 Zrotation Yrotation Xrotation
						End Site
						{
							OFFSET 0.00000 -0.00000 1.10116
						}
					}
				}
			}
		}
	}
	JOINT RHipJoint
	{
		OFFSET 0 0 0
		CHANNELS 3 Zrotation Yrotation Xrotation
		JOINT RightHip
		{
			OFFSET -1.35116 -1.81092 0.91345
			CHANNELS 3 Zrotation Yrotation Xrotation
			JOINT RightKnee
			{
				OFFSET -2.55576 -7.02189 0.00000
				CHANNELS 3 Zrotation Yrotation Xrotation
				JOINT RightAnkle
				{
					OFFSET -2.61938 -7.19669 0.00000
					CHANNELS 3 Zrotation Yrotation Xrotation
					JOINT RightToe
					{
						OFFSET -0.32509 -0.89318 2.23646
						CHANNELS 3 Zrotation Yrotation Xrotation
						End Site
						{
							OFFSET -0.00000 -0.00000 1.19625
						}
					}
				}
			}
		}
	}
	JOINT lowerback
	{
		OFFSET 0 0 0
		CHANNELS 3 Zrotation Yrotation Xrotation
		JOINT Chest
		{
			OFFSET 0.05193 2.08077 -0.11958
			CHANNELS 3 Zrotation Yrotation Xrotation
			JOINT Chest2
			{
				OFFSET 0.04960 2.08447 0.01967
				CHANNELS 3 Zrotation Yrotation Xrotation
				JOINT lowerneck
				{
					OFFSET 0 0 0
					CHANNELS 3 Zrotation Yrotation Xrotation
					JOINT Neck
					{
						OFFSET -0.10699 1.82066 0.27584
						CHANNELS 3 Zrotation Yrotation Xrotation
						JOINT Head
						{
							OFFSET 0.14949 1.84747 -0.32279
							CHANNELS 3 Zrotation Yrotation Xrotation
							End Site
							{
								OFFSET 0.04969 1.88916 -0.14562
							}
						}
					}
				}
				JOINT LeftCollar
				{
					OFFSET 0 0 0
					CHANNELS 3 Zrotation Yrotation Xrotation
					JOINT LeftShoulder
					{
						OFFSET 3.73629 1.27211 -0.12847
CHANNELS 3 Zrotation Xrotation Yrotation
						JOINT LeftElbow
						{
OFFSET 0 -5.109950 0.000000
CHANNELS 3 Zrotation Xrotation Yrotation
							JOINT LeftWrist
							{
OFFSET 0 -3.212070 0.000000
CHANNELS 3 Zrotation Xrotation Yrotation
								JOINT lhand
								{
									OFFSET 0 0 0
CHANNELS 3 Zrotation Xrotation Yrotation
									JOINT LFingers
									{
OFFSET 0 -0.633490 0.000000
CHANNELS 3 Zrotation Xrotation Yrotation
										End Site
										{
OFFSET 0 -0.510740 0.000000
										}
									}
								}
								JOINT LThumb
								{
OFFSET 0 0.000000 0.000000
CHANNELS 3 Zrotation Xrotation Yrotation
									End Site
									{
OFFSET 0 -0.518530 0.518530
									}
								}
							}
						}
					}
				}
				JOINT RightCollar
				{
					OFFSET 0 0 0
					CHANNELS 3 Zrotation Yrotation Xrotation
					JOINT RightShoulder
					{
						OFFSET -3.70251 1.29541 -0.35354
CHANNELS 3 Zrotation Xrotation Yrotation
						JOINT RightElbow
						{
OFFSET 0 -5.251090 0.000000
CHANNELS 3 Zrotation Xrotation Yrotation
							JOINT RightWrist
							{
OFFSET 0 -3.283640 0.000000
CHANNELS 3 Zrotation Xrotation Yrotation
								JOINT rhand
								{
									OFFSET 0 0 0
CHANNELS 3 Zrotation Xrotation Yrotation
									JOINT RFingers
									{
OFFSET 0 -0.599740 0.000000
CHANNELS 3 Zrotation Xrotation Yrotation
										End Site
										{
OFFSET 0 -0.483530 0.000000
										}
									}
								}
								JOINT RThumb
								{
OFFSET 0 0.000000 0.000000
CHANNELS 3 Zrotation Xrotation Yrotation
									End Site
									{
OFFSET 0 -0.490910 0.490910
									}
								}
							}
						}
					}
				}
			}
		}
	}
}
MOTION
Frames: 12
Frame Time: 0.008333333333333333
6.850031 17.755489 -6.928647 1.717114 -61.954802 8.129319 0.000000 0.000000 0.000000 -11.591465 -8.561847 -20.301098 0.726709 5.446847 15.187510 -0.018023 2.476740 -0.180736 0.001656 0.262534 0.721389 0.000000 0.000000 0.000000 21.249524 6.075234 -23.044970 -2.901712 -10.534290 30.724815 -0.887301 -3.605129 -19.448214 -0.394101 -4.030815 11.163387 2.499336 1.647223 9.133620 4.290851 2.484742 1.991497 2.760090 1.186604 -3.135928 -2.855621 5.184682 -14.812430 -5.483015 8.195510 8.873541 -0.544552 3.498044 5.214893 0.000000 0.000000 0.000000 -8.130088 -24.899500 -72.221210 60.864813 -56.536000 35.061575 27.573170 -34.096808 -25.698809 0.000000 0.000000 0.000000 -7.125000 0.000000 0.000000 -2.498865 58.460063 0.822950 0.000000 0.000000 0.000000 -8.587147 -11.353108 48.583735 -87.312267 -59.972666 -57.672535 -23.914656 -41.775279 -10.229164 0.000000 0.000000 0.000000 7.125000 0.000000 0.000000 2.202748 18.817722 1.375496
6.816757 17.761268 -6.953073 2.632403 -62.507339 7.317682 0.000000 0.000000 0.000000 -12.029360 -8.396620 -20.192797 0.719203 5.419143 15.108095 -0.026402 3.281161 0.476687 0.004600 0.437813 1.203103 0.000000 0.000000 0.000000 20.899180 6.353328 -22.954065 -2.912569 -10.552138 30.783782 -0.896569 -3.397706 -19.423942 -0.400968 -4.065241 11.260287 2.647881 1.505255 9.003366 4.236387 2.296908 2.047778 2.645334 1.092204 -2.990899 -2.588987 5.544720 -14.794309 -5.982598 8.703453 9.064149 -0.691460 3.710052 5.315310 0.000000 0.000000 0.000000 -8.316056 -24.836332 -72.645699 60.528525 -56.449147 34.781270 27.650934 -34.820661 -25.416296 0.000000 0.000000 0.000000 -7.125000 0.000000 0.000000 -2.309683 58.176245 0.744847 0.000000 0.000000 0.000000 -8.479211 -11.264528 48.348471 -87.302387 -59.972467 -57.664018 -23.927937 -41.890916 -10.304400 0.000000 0.000000 0.000000 7.125000 0.000000 0.000000 2.196487 18.734769 1.375646
6.779849 17.766058 -6.974854 3.415329 -62.782310 6.569873 0.000000 0.000000 0.000000 -12.276817 -8.549277 -20.057092 0.738588 5.490193 15.312073 -0.030400 3.639079 0.720000 0.000942 0.194984 0.535631 0.000000 0.000000 0.000000 20.634673 6.567243 -22.773141 -2.920091 -10.564571 30.825059 -0.903447 -3.400193 -19.491732 -0.405425 -4.087849 11.323921 2.837980 1.332296 8.864043 4.206792 2.073476 2.075471 2.536224 0.980121 -2.870258 -2.313034 5.851613 -14.824208 -6.342440 9.123096 9.226849 -0.802837 3.889694 5.409897 0.000000 0.000000 0.000000 -8.436969 -24.727206 -72.779016 60.287407 -56.386045 34.580295 28.277814 -35.664806 -25.011336 0.000000 0.000000 0.000000 -7.125000 0.000000 0.000000 -1.465453 57.887154 0.462342 0.000000 0.000000 0.000000 -8.431336 -11.040829 48.135654 -87.386454 -59.974134 -57.736761 -23.647438 -41.875187 -10.292275 0.000000 0.000000 0.000000 7.125000 0.000000 0.000000 2.394700 18.772408 1.497997
6.738929 17.771059 -6.992620 4.113897 -62.974375 5.813715 0.000000 0.000000 0.000000 -12.528609 -8.287290 -20.019383 0.762338 5.575734 15.558185 -0.023182 3.438518 1.014085 0.000557 -0.156901 -0.431171 0.000000 0.000000 0.000000 20.416728 6.775069 -22.437844 -2.920352 -10.565050 30.826614 -0.911683 -3.478060 -19.614645 -0.416050 -4.140085 11.471160 2.973041 1.218442 8.773322 4.209613 1.929076 2.068988 2.481017 0.907605 -2.818366 -2.198133 6.053173 -14.828918 -6.500474 9.413737 9.480066 -0.837788 4.012367 5.510370 0.000000 0.000000 0.000000 -8.423225 -24.584438 -72.987753 60.007810 -56.312035 34.347599 28.569673 -35.469832 -24.997059 0.000000 0.000000 0.000000 -7.125000 0.000000 0.000000 -1.131677 57.939381 0.358350 0.000000 0.000000 0.000000 -8.477795 -10.636784 47.919655 -87.473202 -59.975857 -57.811917 -23.372173 -41.714003 -10.207753 0.000000 0.000000 0.000000 7.125000 0.000000 0.000000 2.586283 18.887615 1.611464
6.694863 17.777006 -7.003506 4.698020 -63.122829 5.135969 0.000000 0.000000 0.000000 -12.718290 -7.952575 -19.986645 0.787018 5.663463 15.810883 -0.013795 3.081199 1.293371 0.003805 -0.397720 -1.092706 0.000000 0.000000 0.000000 20.254898 6.908540 -22.024620 -2.904079 -10.538166 30.737586 -0.917906 -3.533272 -19.704744 -0.424207 -4.180134 11.583896 3.118516 1.157969 8.630974 4.221922 1.854663 2.047189 2.422664 0.870081 -2.756037 -2.205205 6.157970 -14.800796 -6.479871 9.575211 9.753041 -0.811376 4.081446 5.593976 0.000000 0.000000 0.000000 -8.415457 -24.429028 -73.089376 59.623829 -56.208899 34.028291 28.391728 -35.366472 -25.083824 0.000000 0.000000 0.000000 -7.125000 0.000000 0.000000 -1.360741 57.991617 0.432669 0.000000 0.000000 0.000000 -8.604966 -10.197379 47.809306 -87.511609 -59.976600 -57.845108 -23.158413 -41.564131 -10.162764 0.000000 0.000000 0.000000 7.125000 0.000000 0.000000 2.736302 18.954263 1.701023
6.649210 17.784419 -7.009915 5.181096 -63.287109 4.511777 0.000000 0.000000 0.000000 -12.791891 -7.843365 -19.776326 0.809949 5.743192 16.041099 -0.007650 2.828307 1.487400 0.011376 -0.687628 -1.889777 0.000000 0.000000 0.000000 20.149169 6.912465 -21.560019 -2.874932 -10.489787 30.577967 -0.927288 -3.433811 -19.740003 -0.434934 -4.231836 11.729896 3.264754 1.153736 8.476838 4.239130 1.853701 2.026124 2.361073 0.869033 -2.687950 -2.233166 6.217824 -14.764608 -6.412330 9.675815 10.054315 -0.772844 4.122460 5.680411 0.000000 0.000000 0.000000 -8.387502 -24.224514 -73.057116 59.157832 -56.081302 33.641317 27.608902 -35.472601 -25.150845 0.000000 0.000000 0.000000 -7.125000 0.000000 0.000000 -2.263981 57.882365 0.714033 0.000000 0.000000 0.000000 -8.817751 -9.809770 47.816926 -87.523377 -59.976800 -57.855288 -22.739426 -41.488567 -10.141349 0.000000 0.000000 0.000000 7.125000 0.000000 0.000000 3.032803 19.012111 1.882063
6.603825 17.792109 -7.011541 5.559594 -63.509082 3.967298 0.000000 0.000000 0.000000 -12.810102 -7.747802 -19.575319 0.842080 5.853256 16.359374 -0.003096 2.611065 1.624667 0.023240 -0.983633 -2.703907 0.000000 0.000000 0.000000 20.088949 6.918717 -21.047839 -2.836898 -10.426145 30.368144 -0.936231 -3.288585 -19.747036 -0.443336 -4.272268 11.843935 3.405724 1.217099 8.323017 4.268853 1.941242 2.011455 2.306330 0.912014 -2.615399 -2.121703 6.308953 -14.847067 -6.400639 9.811832 10.448177 -0.763917 4.175247 5.826316 0.000000 0.000000 0.000000 -8.288907 -23.983956 -72.931207 58.838233 -55.992307 33.376236 27.254300 -35.283512 -25.144421 0.000000 0.000000 0.000000 -7.125000 0.000000 0.000000 -2.658356 57.793832 0.832950 0.000000 0.000000 0.000000 -9.072436 -9.508486 47.873366 -87.509011 -59.976555 -57.842915 -22.271872 -41.283724 -10.122101 0.000000 0.000000 0.000000 7.125000 0.000000 0.000000 3.364121 19.070856 2.083850
6.561379 17.798441 -7.007692 5.895285 -63.736992 3.473982 0.000000 0.000000 0.000000 -12.864717 -7.563448 -19.489621 0.886065 6.000249 16.785160 0.001271 2.352476 1.735783 0.041893 -1.320809 -3.632093 0.000000 0.000000 0.000000 20.022739 6.973042 -20.539415 -2.800992 -10.365630 30.169071 -0.944281 -3.177752 -19.765143 -0.448383 -4.296207 11.911443 3.554727 1.334984 8.175396 4.296271 2.102354 1.986499 2.237504 0.991525 -2.557417 -2.062247 6.395402 -14.944591 -6.317737 9.947660 10.907668 -0.723163 4.228438 5.989462 0.000000 0.000000 0.000000 -8.204949 -23.688769 -72.791773 58.792170 -55.979391 33.338035 27.383119 -35.324726 -24.953816 0.000000 0.000000 0.000000 -7.125000 0.000000 0.000000 -2.448317 57.619644 0.756836 0.000000 0.000000 0.000000 -9.299728 -9.320514 47.933690 -87.519683 -59.976736 -57.852134 -21.966114 -40.871557 -9.986815 0.000000 0.000000 0.000000 7.125000 0.000000 0.000000 3.577504 19.240110 2.203081
6.523669 17.803061 -6.999583 6.224204 -63.963677 2.979607 0.000000 0.000000 0.000000 -12.949157 -7.376243 -19.451078 0.938636 6.170860 17.280942 0.003980 2.138737 1.789721 0.059519 -1.574221 -4.330357 0.000000 0.000000 0.000000 19.931966 7.052077 -20.054755 -2.775391 -10.322259 30.026704 -0.955582 -3.049726 -19.804960 -0.457345 -4.338225 12.030286 3.727312 1.466538 8.056676 4.306985 2.283677 1.973982 2.136324 1.080876 -2.500457 -1.950937 6.495438 -15.041596 -6.260465 10.093632 11.354900 -0.697033 4.287337 6.153285 0.000000 0.000000 0.000000 -8.061497 -23.474850 -72.714512 59.017725 -56.042462 33.525095 27.928006 -35.442879 -24.566429 0.000000 0.000000 0.000000 -7.125000 0.000000 0.000000 -1.712116 57.327870 0.517061 0.000000 0.000000 0.000000 -9.504778 -9.304945 48.090677 -87.583252 -59.977910 -57.907128 -22.173069 -40.521849 -10.033194 0.000000 0.000000 0.000000 7.125000 0.000000 0.000000 3.431702 19.174112 2.117969
6.492956 17.803875 -6.986631 6.485637 -64.162218 2.519776 0.000000 0.000000 0.000000 -13.022008 -7.236934 -19.467014 1.007596 6.386975 17.911605 0.005213 1.894275 1.744648 0.081857 -1.845199 -5.078172 0.000000 0.000000 0.000000 19.851279 7.160822 -19.584020 -2.761012 -10.297750 29.946412 -0.963994 -3.015212 -19.866783 -0.450419 -4.305699 11.938341 3.909861 1.549564 7.958011 4.370371 2.398283 2.012758 2.091925 1.136895 -2.401610 -1.872569 6.658855 -15.145270 -6.193372 10.318475 11.650835 -0.656773 4.390553 6.269814 0.000000 0.000000 0.000000 -7.947492 -23.501653 -72.482231 59.426069 -56.155066 33.864030 27.640906 -35.986206 -24.526338 0.000000 0.000000 0.000000 -7.125000 0.000000 0.000000 -2.018151 57.219830 0.604290 0.000000 0.000000 0.000000 -9.737344 -9.582823 48.524977 -87.327758 -59.972975 -57.685941 -23.077152 -39.911764 -10.576118 0.000000 0.000000 0.000000 7.125000 0.000000 0.000000 2.809313 18.515010 1.773734
6.471935 17.800491 -6.971770 6.745958 -64.382137 2.038726 0.000000 0.000000 0.000000 -13.097240 -7.103387 -19.507726 1.083780 6.616667 18.584709 0.005400 1.671203 1.649197 0.102986 -2.069005 -5.696454 0.000000 0.000000 0.000000 19.756415 7.267182 -19.189822 -2.769237 -10.311731 29.992243 -0.978000 -2.952881 -19.966701 -0.447774 -4.293170 11.903005 4.089112 1.646648 7.967624 4.430521 2.536197 2.071763 2.041604 1.203910 -2.341639 -1.851102 6.781852 -15.185731 -6.071262 10.473545 11.755547 -0.603079 4.472272 6.306889 0.000000 0.000000 0.000000 -8.018832 -23.628046 -72.415201 60.015892 -56.314167 34.354370 27.835027 -36.908166 -24.367609 0.000000 0.000000 0.000000 -7.125000 0.000000 0.000000 -1.751774 57.092861 0.519143 0.000000 0.000000 0.000000 -9.905477 -10.012439 48.994312 -86.928036 -59.964319 -57.339925 -24.315297 -38.584882 -11.439102 0.000000 0.000000 0.000000 7.125000 0.000000 0.000000 1.977993 17.465233 1.293597
6.461099 17.794263 -6.954397 6.948985 -64.570059 1.604791 0.000000 0.000000 0.000000 -13.165460 -6.998517 -19.581362 1.164483 6.850256 19.272544 0.005857 1.416996 1.571963 0.144236 -2.446904 -6.742569 0.000000 0.000000 0.000000 19.667852 7.315962 -18.906767 -2.796455 -10.358001 30.144033 -0.995131 -2.860226 -20.079736 -0.450643 -4.306635 11.941020 4.324551 1.741731 8.117422 4.493992 2.686988 2.111762 1.957880 1.275558 -2.376153 -1.747746 6.856163 -15.233936 -6.016677 10.550943 11.799078 -0.591436 4.516886 6.332134 0.000000 0.000000 0.000000 -8.292114 -23.903546 -72.415228 60.540528 -56.452202 34.791210 27.885886 -38.116058 -24.123147 0.000000 0.000000 0.000000 -7.125000 0.000000 0.000000 -1.618593 56.840865 0.469764 0.000000 0.000000 0.000000 -9.978039 -10.519130 49.281826 -86.514036 -59.954062 -56.981495 -25.839063 -36.791725 -12.507459 0.000000 0.000000 0.000000 7.125000 0.000000 0.000000 0.983051 16.135030 0.670951
